<svg width="512" height="512" xmlns="http://www.w3.org/2000/svg">

 <g>
  <title>background</title>
  <rect fill="none" id="canvas_background" height="402" width="582" y="-1" x="-1"/>
 </g>
 <g>
  <title>Layer 1</title>
  <rect fill="#017bbe" y="-512" x="-512" width="512" transform="scale(-1,-1)" ry="70" rx="70" id="rect2989" height="512"/>
  <rect transform="matrix(1.20263, 0, 0, 1.20263, -54.3841, -52.796)" fill="#ffffff" y="203.761" x="112.57325" width="63.599083" id="rect3163" height="196.94901"/>
  <path fill="#ffffff" id="path3165" d="m119.736351,158.136993c20.974434,0 37.991035,-16.852585 37.991035,-37.622581c0,-20.793678 -17.016602,-37.624733 -37.991035,-37.624733c-20.988182,0 -37.992043,16.831055 -37.992043,37.624733c0,20.769997 17.00386,37.622581 37.992043,37.622581z"/>
  <path fill="#ffffff" id="path3167" d="m430.897797,298.243591c-0.450989,-12.43277 2.359558,-53.505051 -27.387543,-82.880524c-15.596924,-15.409302 -23.474152,-22.663589 -61.444824,-22.663589c-30.507141,0 -59.092499,19.73999 -70.428497,35.439148l0,-34.697113l-77.906448,0l0,234.533524l77.906448,0c0,0 0,-107.842316 0,-133.696503c0,-19.256531 9.999878,-39.686829 37.213013,-39.686829c27.244385,0 44.224365,21.943207 44.224365,47.12149l0,126.261841l77.92569,0l0,-129.731445l-0.102203,0z"/>
 </g>
</svg>